<?xml version="1.0" encoding="UTF-8" standalone="no"?>
<!DOCTYPE svg PUBLIC "-//W3C//DTD SVG 1.1//EN" "http://www.w3.org/Graphics/SVG/1.1/DTD/svg11.dtd">
<svg width="100%" height="100%" viewBox="0 0 2267 466" version="1.1" xmlns="http://www.w3.org/2000/svg" xmlns:xlink="http://www.w3.org/1999/xlink" xml:space="preserve" xmlns:serif="http://www.serif.com/" style="fill-rule:evenodd;clip-rule:evenodd;stroke-linejoin:round;stroke-miterlimit:2;">
    <g transform="matrix(1,0,0,1,-106.869,-385.811)">
        <g transform="matrix(1.0675,0,0,0.746109,-170.681,-1842.82)">
            <rect x="260" y="2987" width="484" height="127" style="fill:rgb(0,168,255);"/>
        </g>
        <g transform="matrix(1.0675,0,0,0.746109,-170.681,-1472.35)">
            <rect x="260" y="2987" width="484" height="127" style="fill:rgb(0,168,255);"/>
        </g>
        <g transform="matrix(1.0675,0,0,0.746109,-170.681,-1661.35)">
            <rect x="260" y="2987" width="484" height="127" style="fill:rgb(0,168,255);"/>
        </g>
        <g transform="matrix(13.142,0,0,13.142,-10739.7,-35364.7)">
            <path d="M864.654,2720.33L888.704,2720.33L888.704,2727.54L872.454,2727.54L872.454,2734.13L887.804,2734.13L887.804,2741.33L872.454,2741.33L872.454,2748.53L889.604,2748.53L889.604,2755.73L864.654,2755.73L864.654,2720.33Z" style="fill:rgb(30,27,27);fill-rule:nonzero;"/>
            <path d="M896.154,2720.33L903.954,2720.33L903.954,2748.53L918.404,2748.53L918.404,2755.73L896.154,2755.73L896.154,2720.33Z" style="fill:rgb(30,27,27);fill-rule:nonzero;"/>
            <path d="M923.004,2720.33L930.804,2720.33L930.804,2748.53L945.254,2748.53L945.254,2755.73L923.004,2755.73L923.004,2720.33Z" style="fill:rgb(30,27,27);fill-rule:nonzero;"/>
            <rect x="949.454" y="2720.33" width="7.8" height="35.4" style="fill:rgb(30,27,27);fill-rule:nonzero;"/>
        </g>
        <g transform="matrix(1.557,0,0,1.59842,-1488.1,-8.10401)">
            <path d="M2311.27,536.5C2296.97,535.099 2283.49,532.027 2270.83,527.324C2252.57,520.543 2236.79,510.828 2223.49,498.179C2210.19,485.531 2199.82,470.208 2192.39,452.213C2184.96,434.218 2181.24,414.136 2181.24,391.968C2181.24,369.8 2184.96,349.718 2192.39,331.723C2199.82,313.728 2210.19,298.405 2223.49,285.757C2236.79,273.108 2252.57,263.393 2270.83,256.612C2289.08,249.831 2309.03,246.441 2330.68,246.441C2352.33,246.441 2372.28,249.831 2390.53,256.612C2408.79,263.393 2424.57,273.108 2437.87,285.757C2451.17,298.405 2461.54,313.728 2468.97,331.723C2476.4,349.718 2480.12,369.8 2480.12,391.968C2480.12,414.136 2476.4,434.218 2468.97,452.213C2461.54,470.208 2451.17,485.531 2437.87,498.179C2424.57,510.828 2408.79,520.543 2390.53,527.324C2377.87,532.027 2364.39,535.099 2350.09,536.5L2350.09,479.332C2355.71,478.242 2361.04,476.63 2366.08,474.512C2376.65,470.078 2385.71,463.884 2393.27,455.93C2400.84,447.975 2406.64,438.586 2410.68,427.763C2414.72,416.94 2416.74,405.008 2416.74,391.968C2416.74,379.189 2414.72,367.322 2410.68,356.369C2406.64,345.415 2400.84,335.961 2393.27,328.006C2385.71,320.052 2376.65,313.858 2366.08,309.424C2355.52,304.991 2343.72,302.774 2330.68,302.774C2317.64,302.774 2305.84,304.991 2295.28,309.424C2284.71,313.858 2275.65,320.052 2268.09,328.006C2260.52,335.961 2254.72,345.415 2250.68,356.369C2246.64,367.322 2244.62,379.189 2244.62,391.968C2244.62,405.008 2246.64,416.94 2250.68,427.763C2254.72,438.586 2260.52,447.975 2268.09,455.93C2275.65,463.884 2284.71,470.078 2295.28,474.512C2300.32,476.63 2305.65,478.242 2311.27,479.332L2311.27,536.5Z" style="fill:rgb(30,27,27);"/>
        </g>
    </g>
</svg>
